<svg width="79" height="39" viewBox="0 0 79 29" fill="none" xmlns="http://www.w3.org/2000/svg">
    <g filter="url(#filter0_d_2_158)" id="logo">
        <path d="M9.99 18.04H16.71V22H4.86V0.939999H9.99V18.04ZM26.7769 22.24C25.1369 22.24 23.6569 21.89 22.3369 21.19C21.0369 20.49 20.0069 19.49 19.2469 18.19C18.5069 16.89 18.1369 15.37 18.1369 13.63C18.1369 11.91 18.5169 10.4 19.2769 9.1C20.0369 7.78 21.0769 6.77 22.3969 6.07C23.7169 5.37 25.1969 5.02 26.8369 5.02C28.4769 5.02 29.9569 5.37 31.2769 6.07C32.5969 6.77 33.6369 7.78 34.3969 9.1C35.1569 10.4 35.5369 11.91 35.5369 13.63C35.5369 15.35 35.1469 16.87 34.3669 18.19C33.6069 19.49 32.5569 20.49 31.2169 21.19C29.8969 21.89 28.4169 22.24 26.7769 22.24ZM26.7769 17.8C27.7569 17.8 28.5869 17.44 29.2669 16.72C29.9669 16 30.3169 14.97 30.3169 13.63C30.3169 12.29 29.9769 11.26 29.2969 10.54C28.6369 9.82 27.8169 9.46 26.8369 9.46C25.8369 9.46 25.0069 9.82 24.3469 10.54C23.6869 11.24 23.3569 12.27 23.3569 13.63C23.3569 14.97 23.6769 16 24.3169 16.72C24.9769 17.44 25.7969 17.8 26.7769 17.8ZM44.6184 5.02C45.7984 5.02 46.8284 5.26 47.7084 5.74C48.6084 6.22 49.2984 6.85 49.7784 7.63V5.26H54.9084V21.97C54.9084 23.51 54.5984 24.9 53.9784 26.14C53.3784 27.4 52.4484 28.4 51.1884 29.14C49.9484 29.88 48.3984 30.25 46.5384 30.25C44.0584 30.25 42.0484 29.66 40.5084 28.48C38.9684 27.32 38.0884 25.74 37.8684 23.74H42.9384C43.0984 24.38 43.4784 24.88 44.0784 25.24C44.6784 25.62 45.4184 25.81 46.2984 25.81C47.3584 25.81 48.1984 25.5 48.8184 24.88C49.4584 24.28 49.7784 23.31 49.7784 21.97V19.6C49.2784 20.38 48.5884 21.02 47.7084 21.52C46.8284 22 45.7984 22.24 44.6184 22.24C43.2384 22.24 41.9884 21.89 40.8684 21.19C39.7484 20.47 38.8584 19.46 38.1984 18.16C37.5584 16.84 37.2384 15.32 37.2384 13.6C37.2384 11.88 37.5584 10.37 38.1984 9.07C38.8584 7.77 39.7484 6.77 40.8684 6.07C41.9884 5.37 43.2384 5.02 44.6184 5.02ZM49.7784 13.63C49.7784 12.35 49.4184 11.34 48.6984 10.6C47.9984 9.86 47.1384 9.49 46.1184 9.49C45.0984 9.49 44.2284 9.86 43.5084 10.6C42.8084 11.32 42.4584 12.32 42.4584 13.6C42.4584 14.88 42.8084 15.9 43.5084 16.66C44.2284 17.4 45.0984 17.77 46.1184 17.77C47.1384 17.77 47.9984 17.4 48.6984 16.66C49.4184 15.92 49.7784 14.91 49.7784 13.63ZM66.2398 22.24C64.5998 22.24 63.1198 21.89 61.7998 21.19C60.4998 20.49 59.4698 19.49 58.7098 18.19C57.9698 16.89 57.5998 15.37 57.5998 13.63C57.5998 11.91 57.9798 10.4 58.7398 9.1C59.4998 7.78 60.5398 6.77 61.8598 6.07C63.1798 5.37 64.6598 5.02 66.2998 5.02C67.9398 5.02 69.4198 5.37 70.7398 6.07C72.0598 6.77 73.0998 7.78 73.8598 9.1C74.6198 10.4 74.9998 11.91 74.9998 13.63C74.9998 15.35 74.6098 16.87 73.8298 18.19C73.0698 19.49 72.0198 20.49 70.6798 21.19C69.3598 21.89 67.8798 22.24 66.2398 22.24ZM66.2398 17.8C67.2198 17.8 68.0498 17.44 68.7298 16.72C69.4298 16 69.7798 14.97 69.7798 13.63C69.7798 12.29 69.4398 11.26 68.7598 10.54C68.0998 9.82 67.2798 9.46 66.2998 9.46C65.2998 9.46 64.4698 9.82 63.8098 10.54C63.1498 11.24 62.8198 12.27 62.8198 13.63C62.8198 14.97 63.1398 16 63.7798 16.72C64.4398 17.44 65.2598 17.8 66.2398 17.8Z" fill="white"/>
        <defs>
            <filter id="filter0_d_2_158" x="0.859985" y="0.939941" width="78.1398" height="29.3101" filterUnits="userSpaceOnUse" color-interpolation-filters="sRGB">
                <feFlood flood-opacity="0" result="BackgroundImageFix"/>
                <feColorMatrix in="SourceAlpha" type="matrix" values="0 0 0 0 0 0 0 0 0 0 0 0 0 0 0 0 0 0 127 0" result="hardAlpha"/>
                <feOffset dy="4"/>
                <feGaussianBlur stdDeviation="2"/>
                <feComposite in2="hardAlpha" operator="out"/>
                <feColorMatrix type="matrix" values="0 0 0 0 0 0 0 0 0 0 0 0 0 0 0 0 0 0 0.25 0"/>
                <feBlend mode="normal" in2="BackgroundImageFix" result="effect1_dropShadow_2_158"/>
                <feBlend mode="normal" in="SourceGraphic" in2="effect1_dropShadow_2_158" result="shape"/>
            </filter>
        </defs>
    </g>

    <g id="email">
        <path d="M17.125 0.125H0.875C0.529297 0.125 0.25 0.404297 0.25 0.75V13.25C0.25 13.5957 0.529297 13.875 0.875 13.875H17.125C17.4707 13.875 17.75 13.5957 17.75 13.25V0.75C17.75 0.404297 17.4707 0.125 17.125 0.125ZM15.5469 2.25195L9.38477 7.04688C9.23242 7.16602 9.01953 7.16602 8.86719 7.04688L2.70312 2.25195C2.67989 2.23402 2.66285 2.20927 2.65438 2.18116C2.64592 2.15306 2.64647 2.12301 2.65594 2.09523C2.66542 2.06745 2.68335 2.04333 2.70722 2.02625C2.73109 2.00918 2.75971 2 2.78906 2H15.4609C15.4903 2 15.5189 2.00918 15.5428 2.02625C15.5667 2.04333 15.5846 2.06745 15.5941 2.09523C15.6035 2.12301 15.6041 2.15306 15.5956 2.18116C15.5872 2.20927 15.5701 2.23402 15.5469 2.25195Z" fill="white"/>
    </g>

    <g id="download">
        <path d="M10 12.5L13.3334 9.16667M10 12.5V2.5V12.5ZM10 12.5L6.66669 9.16667L10 12.5Z" stroke="white" stroke-width="2" stroke-linecap="round" stroke-linejoin="round"/>
        <path d="M1.66669 14.1667L2.18419 16.2376C2.27431 16.5981 2.48237 16.9182 2.7753 17.147C3.06822 17.3757 3.42919 17.5 3.80085 17.5001H16.1992C16.5708 17.5 16.9318 17.3757 17.2247 17.147C17.5177 16.9182 17.7257 16.5981 17.8159 16.2376L18.3334 14.1667" stroke="white" stroke-width="2" stroke-linecap="round" stroke-linejoin="round"/>
    </g>
</svg>

